<svg xmlns="http://www.w3.org/2000/svg" width="54" height="53.546" viewBox="0 0 54 53.546">
  <g id="パス_11" data-name="パス 11" fill="rgba(187,238,154,0.97)" opacity="0.98">
    <path d="M 27 53.04571914672852 C 23.42177963256836 53.04571914672852 19.95089912414551 52.35093688964844 16.68375968933105 50.98068618774414 C 13.52810955047607 49.65718841552734 10.69400024414062 47.76243591308594 8.260169982910156 45.34908676147461 C 5.826640129089355 42.93601608276367 3.916120052337646 40.12626647949219 2.581700086593628 36.99788665771484 C 1.200389981269836 33.75956726074219 0.5 30.31936836242676 0.5 26.77285766601562 C 0.5 23.22634696960449 1.200389981269836 19.78614807128906 2.581700086593628 16.54782676696777 C 3.916120052337646 13.41944789886475 5.826640129089355 10.60969734191895 8.260169982910156 8.196627616882324 C 10.69400024414062 5.78327751159668 13.52810955047607 3.888527631759644 16.68375968933105 2.565027713775635 C 19.95089912414551 1.194777607917786 23.42177963256836 0.4999976754188538 27 0.4999976754188538 C 30.57822036743164 0.4999976754188538 34.04909896850586 1.194777607917786 37.31623840332031 2.565027713775635 C 40.47188949584961 3.888527631759644 43.30599975585938 5.78327751159668 45.73983001708984 8.196627616882324 C 48.17335891723633 10.60969734191895 50.08388137817383 13.41944789886475 51.41830062866211 16.54782676696777 C 52.79961013793945 19.78614807128906 53.5 23.22634696960449 53.5 26.77285766601562 C 53.5 30.31936836242676 52.79961013793945 33.75956726074219 51.41830062866211 36.99788665771484 C 50.08388137817383 40.12626647949219 48.17335891723633 42.93601608276367 45.73983001708984 45.34908676147461 C 43.30599975585938 47.76243591308594 40.47188949584961 49.65718841552734 37.31623840332031 50.98068618774414 C 34.04909896850586 52.35093688964844 30.57822036743164 53.04571914672852 27 53.04571914672852 Z" stroke="none"/>
    <path d="M 27 0.9999961853027344 C 23.48854064941406 0.9999961853027344 20.08272171020508 1.681686401367188 16.87715148925781 3.026119232177734 C 13.78097915649414 4.324676513671875 11.00025939941406 6.183738708496094 8.612228393554688 8.551677703857422 C 6.224788665771484 10.91902923583984 4.350559234619141 13.67532730102539 3.041610717773438 16.7440071105957 C 1.686901092529297 19.91995620727539 1 23.29415702819824 1 26.77285766601562 C 1 30.25155830383301 1.686901092529297 33.62575531005859 3.041610717773438 36.80170822143555 C 4.350559234619141 39.87038803100586 6.224788665771484 42.62668609619141 8.612228393554688 44.99403762817383 C 11.00025939941406 47.36197662353516 13.78097915649414 49.22103881835938 16.87715148925781 50.51959609985352 C 20.08272171020508 51.86402893066406 23.48854064941406 52.54571914672852 27 52.54571914672852 C 30.51145935058594 52.54571914672852 33.91728210449219 51.86402893066406 37.12284851074219 50.51959609985352 C 40.21902084350586 49.22103881835938 42.99974060058594 47.36197662353516 45.38777160644531 44.99403762817383 C 47.77521133422852 42.62668609619141 49.64944076538086 39.87038803100586 50.95838928222656 36.80170822143555 C 52.3130989074707 33.62575531005859 53 30.25155830383301 53 26.77285766601562 C 53 23.29415702819824 52.3130989074707 19.91995620727539 50.95838928222656 16.7440071105957 C 49.64944076538086 13.67532730102539 47.77521133422852 10.91902923583984 45.38777160644531 8.551677703857422 C 42.99974060058594 6.183738708496094 40.21902084350586 4.324676513671875 37.12284851074219 3.026119232177734 C 33.91728210449219 1.681686401367188 30.51145935058594 0.9999961853027344 27 0.9999961853027344 M 27 -3.814697265625e-06 C 41.91168975830078 -3.814697265625e-06 54 11.98661804199219 54 26.77285766601562 C 54 41.55909729003906 41.91168975830078 53.54571914672852 27 53.54571914672852 C 12.08831024169922 53.54571914672852 0 41.55909729003906 0 26.77285766601562 C 0 11.98661804199219 12.08831024169922 -3.814697265625e-06 27 -3.814697265625e-06 Z" stroke="none" fill="#707070"/>
  </g>
</svg>
